# xmcd
#
# Track frame offsets:
#       150
#       7288
#       23861
#       43024
#       55200
#       69257
#       84182
#       95903
#       113291
#       132957
#       145777
#       159887
#       173039
#       189422
#       204261
#       217274
#
# Disc length: 3101 seconds
#
# Revision: 1
# Processed by: cddbd v1.5.2PL0 Copyright (c) Steve Scherf et al.
# Submitted via: FreeDbEdit v0.1
#
DISCID=d40c1b10
DTITLE=George Strait - For the Last Time (Live From the Astrodome)
DYEAR=1900
DGENRE=Country
TTITLE0=Deep in the Heart of Texas
TTITLE1=Write This Down
TTITLE2=I Can Still Make Cheyenne
TTITLE3=Heartland
TTITLE4=Love Without End , Amen
TTITLE5=Check Yes or No
TTITLE6=The Fireman
TTITLE7=Run
TTITLE8=Murder on Music Row
TTITLE9=The Chair
TTITLE10=She'll Leave You With a Smile
TTITLE11=Amarillo by Morning
TTITLE12=Living and Living Well
TTITLE13=Take Me Back to Tulsa
TTITLE14=Blue Clear Sky
TTITLE15=The Cowboy Rides Away
EXTD=
EXTT0=
EXTT1=
EXTT2=
EXTT3=
EXTT4=
EXTT5=
EXTT6=
EXTT7=
EXTT8=
EXTT9=
EXTT10=
EXTT11=
EXTT12=
EXTT13=
EXTT14=
EXTT15=
PLAYORDER=
